<svg xmlns="http://www.w3.org/2000/svg" viewBox="0 0 20 20" height="20px" width="20px" fill="none" stroke="#000000"
    stroke-linecap="round" stroke-linejoin="round">
    <path
        d="m9.257 6.351.183.183H15.819c.34 0 .727.182 1.051.506.323.323.505.708.505 1.05v5.819c0 .316-.183.7-.52 1.035-.337.338-.723.522-1.037.522H4.182c-.352 0-.74-.181-1.058-.5-.318-.318-.499-.705-.499-1.057V5.182c0-.351.181-.736.5-1.054.32-.321.71-.503 1.057-.503H6.53l2.726 2.726Z"
        stroke-width="1.25"></path>
</svg>